
<svg xmlns="http://www.w3.org/2000/svg" viewBox="0 0 100 100" width="100" height="100">
  <path 
    d="M50,5C25.1,5,5,25.1,5,50s20.1,45,45,45s45-20.1,45-45S74.9,5,50,5z M78.2,70c-2.5,4.5-5.9,8.4-10.3,11.3 c-4.4,2.9-9.6,4.3-15.6,4.3c-6,0-11.2-1.4-15.6-4.3c-4.4-2.9-7.9-6.8-10.3-11.3c-2.5-4.5-3.9-9.6-3.9-15.1 c0-5.5,1.3-10.6,3.9-15.1c2.5-4.5,5.9-8.4,10.3-11.3c4.4-2.9,9.6-4.3,15.6-4.3c6,0,11.2,1.4,15.6,4.3c4.4,2.9,7.9,6.8,10.3,11.3 c2.5,4.5,3.9,9.6,3.9,15.1C82.1,60.4,80.8,65.4,78.2,70z" 
    fill="#D80000"/>
  <path 
    d="M50,15.9c-5.1,0-9.5,1.2-13.3,3.7c-3.8,2.5-6.7,5.8-8.8,9.9c-2.1,4.1-3.2,8.5-3.2,13 c0,4.7,1.1,9.1,3.2,13c2.1,3.9,5.1,7.3,8.8,9.7c3.8,2.5,8.2,3.7,13.3,3.7c5.1,0,9.5-1.2,13.3-3.7c3.8-2.5,6.7-5.8,8.8-9.7 c2.1-3.9,3.2-8.3,3.2-13c0-4.7-1.1-9.1-3.2-13c-2.1-3.9-5.1-7.3-8.8-9.9C59.5,17.1,55.1,15.9,50,15.9z" 
    fill="none" 
    stroke="#000000" 
    stroke-width="2"/>
  <path 
    d="M35.1,36.7c1.1-2,2.7-3.7,4.7-4.9c2-1.2,4.2-1.8,6.6-1.8c2.5,0,4.6,0.6,6.6,1.8c2,1.2,3.5,2.8,4.7,4.9 c1.1,2,1.7,4.2,1.7,6.6c0,2.4-0.6,4.6-1.7,6.6c-1.1,2-2.7,3.7-4.7,4.9c-2,1.2-4.2,1.8-6.6,1.8c-2.5,0-4.6-0.6-6.6-1.8 c-2-1.2-3.5-2.8-4.7-4.9c-1.1-2-1.7-4.2-1.7-6.6C33.4,40.9,34,38.7,35.1,36.7z" 
    fill="#D80000"/>
</svg>
